ffprobe version 6.1.1-3ubuntu5+esm3 Copyright (c) 2007-2023 the FFmpeg developers
  built with gcc 13 (Ubuntu 13.3.0-6ubuntu2~24.04)
  configuration: --prefix=/usr --extra-version=3ubuntu5+esm3 --toolchain=hardened --libdir=/usr/lib/x86_64-linux-gnu --incdir=/usr/include/x86_64-linux-gnu --arch=amd64 --enable-gpl --disable-stripping --disable-omx --enable-gnutls --enable-libaom --enable-libass --enable-libbs2b --enable-libcaca --enable-libcdio --enable-libcodec2 --enable-libdav1d --enable-libflite --enable-libfontconfig --enable-libfreetype --enable-libfribidi --enable-libglslang --enable-libgme --enable-libgsm --enable-libharfbuzz --enable-libmp3lame --enable-libmysofa --enable-libopenjpeg --enable-libopenmpt --enable-libopus --enable-librubberband --enable-libshine --enable-libsnappy --enable-libsoxr --enable-libspeex --enable-libtheora --enable-libtwolame --enable-libvidstab --enable-libvorbis --enable-libvpx --enable-libwebp --enable-libx265 --enable-libxml2 --enable-libxvid --enable-libzimg --enable-openal --enable-opencl --enable-opengl --disable-sndio --enable-libvpl --disable-libmfx --enable-libdc1394 --enable-libdrm --enable-libiec61883 --enable-chromaprint --enable-frei0r --enable-ladspa --enable-libbluray --enable-libjack --enable-libpulse --enable-librabbitmq --enable-librist --enable-libsrt --enable-libssh --enable-libsvtav1 --enable-libx264 --enable-libzmq --enable-libzvbi --enable-lv2 --enable-sdl2 --enable-libplacebo --enable-librav1e --enable-pocketsphinx --enable-librsvg --enable-libjxl --enable-shared
  libavutil      58. 29.100 / 58. 29.100
  libavcodec     60. 31.102 / 60. 31.102
  libavformat    60. 16.100 / 60. 16.100
  libavdevice    60.  3.100 / 60.  3.100
  libavfilter     9. 12.100 /  9. 12.100
  libswscale      7.  5.100 /  7.  5.100
  libswresample   4. 12.100 /  4. 12.100
  libpostproc    57.  3.100 / 57.  3.100
Input #0, matroska,webm, from 'Andor - S02E07 - Messenger WEBDL-2160p.mkv':
  Metadata:
    encoder         : libebml v1.4.4 + libmatroska v1.7.1
  Duration: 00:43:39.94, start: 0.000000, bitrate: 16050 kb/s
  Stream #0:0: Video: hevc (Main 10), yuv420p10le(pc), 3840x2160 [SAR 1:1 DAR 16:9], 24 fps, 24 tbr, 1k tbn (default)
    Metadata:
      BPS             : 15024508
      DURATION        : 00:43:39.875000000
      NUMBER_OF_FRAMES: 62877
      NUMBER_OF_BYTES : 4920291649
      _STATISTICS_WRITING_APP: mkvmerge v77.0 ('Elemental') 64-bit
      _STATISTICS_TAGS: BPS DURATION NUMBER_OF_FRAMES NUMBER_OF_BYTES
    Side data:
      DOVI configuration record: version: 1.0, profile: 5, level: 6, rpu flag: 1, el flag: 0, bl flag: 1, compatibility id: 0
  Stream #0:1(fre): Audio: eac3, 48000 Hz, 5.1(side), fltp, 256 kb/s (default)
    Metadata:
      title           : French
      BPS             : 256000
      DURATION        : 00:43:39.936000000
      NUMBER_OF_FRAMES: 81873
      NUMBER_OF_BYTES : 83837952
      _STATISTICS_WRITING_APP: mkvmerge v77.0 ('Elemental') 64-bit
      _STATISTICS_TAGS: BPS DURATION NUMBER_OF_FRAMES NUMBER_OF_BYTES
  Stream #0:2(eng): Audio: eac3 (Dolby Digital Plus + Dolby Atmos), 48000 Hz, 5.1(side), fltp, 768 kb/s
    Metadata:
      title           : English
      BPS             : 768000
      DURATION        : 00:43:39.936000000
      NUMBER_OF_FRAMES: 81873
      NUMBER_OF_BYTES : 251513856
      _STATISTICS_WRITING_APP: mkvmerge v77.0 ('Elemental') 64-bit
      _STATISTICS_TAGS: BPS DURATION NUMBER_OF_FRAMES NUMBER_OF_BYTES
  Stream #0:3(fre): Subtitle: subrip (default) (forced)
    Metadata:
      title           : Français (forced)
      BPS             : 3
      DURATION        : 00:39:01.584000000
      NUMBER_OF_FRAMES: 35
      NUMBER_OF_BYTES : 1018
      _STATISTICS_WRITING_APP: mkvmerge v77.0 ('Elemental') 64-bit
      _STATISTICS_TAGS: BPS DURATION NUMBER_OF_FRAMES NUMBER_OF_BYTES
  Stream #0:4(fre): Subtitle: subrip
    Metadata:
      title           : Français
      BPS             : 46
      DURATION        : 00:41:04.208000000
      NUMBER_OF_FRAMES: 506
      NUMBER_OF_BYTES : 14395
      _STATISTICS_WRITING_APP: mkvmerge v77.0 ('Elemental') 64-bit
      _STATISTICS_TAGS: BPS DURATION NUMBER_OF_FRAMES NUMBER_OF_BYTES
